<?xml version="1.0" standalone="no"?>
<!DOCTYPE svg PUBLIC "-//W3C//DTD SVG 20010904//EN"
 "http://www.w3.org/TR/2001/REC-SVG-20010904/DTD/svg10.dtd">
<svg version="1.0" xmlns="http://www.w3.org/2000/svg"
 width="800.000000pt" height="533.000000pt" viewBox="0 0 800.000000 533.000000"
 preserveAspectRatio="xMidYMid meet">

<g transform="translate(0.000000,533.000000) scale(0.100000,-0.100000)"
fill="#000000" stroke="none">
<path d="M0 2665 l0 -2665 4000 0 4000 0 0 2665 0 2665 -4000 0 -4000 0 0
-2665z m5517 1049 c18 -58 30 -69 97 -89 l38 -11 -59 -22 -60 -22 -18 -61 -19
-60 -18 59 -18 59 -62 23 -63 23 61 20 62 20 18 59 c11 32 20 58 21 58 1 0 10
-25 20 -56z m-2472 -469 c103 -30 169 -107 181 -211 12 -95 -31 -179 -109
-214 l-39 -18 34 -11 c41 -14 101 -66 121 -106 22 -44 27 -193 7 -180 -5 3 -7
0 -4 -9 7 -19 -14 -59 -27 -51 -5 4 -9 3 -8 -2 4 -23 -5 -35 -45 -63 -79 -54
-118 -58 -618 -64 l-458 -6 0 482 0 481 458 -6 c362 -5 467 -10 507 -22z
m1205 8 c0 -5 -40 -7 -90 -5 l-89 3 -34 -33 c-18 -18 -36 -41 -40 -51 -4 -10
-17 -17 -32 -17 -14 0 -25 -4 -25 -9 0 -10 -58 -25 -117 -30 -27 -2 -11 -21
18 -21 16 0 28 -4 25 -9 -3 -5 -61 -10 -128 -10 -67 -1 -124 -4 -127 -6 -2 -3
-3 -40 -2 -82 1 -43 -2 -73 -6 -67 -14 20 -51 23 -59 5 -4 -9 -6 -21 -5 -27 1
-7 -14 -15 -34 -18 -21 -4 -35 -13 -35 -21 0 -15 -68 -55 -94 -55 -10 0 -16
-13 -18 -42 -2 -24 -7 75 -12 219 -4 144 -5 266 -1 272 7 13 905 16 905 4z
m657 -35 c25 -24 54 -56 65 -73 l20 -30 -25 28 c-13 16 -32 30 -43 31 -11 2
-18 10 -16 19 2 10 -3 15 -10 13 -7 -1 -9 -1 -5 2 17 9 -33 33 -65 31 -18 -1
-67 1 -108 6 -84 8 -95 3 -103 -50 -3 -22 -4 -17 -6 18 l-1 47 126 0 126 0 45
-42z m1002 -170 c0 -117 -4 -222 -9 -233 -6 -13 -7 6 -3 50 4 48 2 67 -5 60
-5 -5 -12 -19 -15 -30 -3 -11 -6 3 -7 30 l-2 50 -13 -40 c-7 -22 -13 -33 -14
-25 -1 11 -13 17 -35 18 -27 2 -35 -2 -40 -20 -6 -22 -8 -21 -24 12 -10 20
-32 42 -51 52 -19 9 -45 26 -58 38 -14 12 -27 19 -31 16 -8 -9 -33 15 -26 25
3 5 0 9 -5 9 -6 0 -11 6 -11 14 0 17 -40 29 -41 13 0 -8 -2 -8 -6 1 -2 6 -9 9
-15 6 -5 -3 -2 -14 9 -26 18 -20 17 -21 -2 -10 -17 9 -27 5 -54 -19 -19 -16
-36 -29 -38 -29 -3 0 48 56 113 125 l118 125 133 0 133 0 -1 -212z m-1609 192
c0 -5 -7 -7 -15 -4 -8 4 -15 8 -15 10 0 2 7 4 15 4 8 0 15 -4 15 -10z m39 -21
c-15 -9 -32 -2 -24 11 3 5 13 6 21 3 12 -4 13 -8 3 -14z m76 -39 c3 -6 -1 -7
-9 -4 -18 7 -21 14 -7 14 6 0 13 -4 16 -10z m-230 -118 c-3 -3 -11 0 -18 7 -9
10 -8 11 6 5 10 -3 15 -9 12 -12z m884 -16 c17 -18 19 -26 10 -31 -7 -5 -10
-4 -5 3 3 6 2 13 -4 17 -5 3 -10 1 -10 -6 0 -18 -10 -5 -15 20 -5 26 -3 26 24
-3z m434 -10 c4 -10 1 -13 -9 -9 -7 3 -14 9 -14 14 0 14 17 10 23 -5z m-93
-39 c0 -2 -10 -12 -22 -23 l-23 -19 19 23 c18 21 26 27 26 19z m-265 -27 c10
-11 16 -20 13 -20 -3 0 -13 9 -23 20 -10 11 -16 20 -13 20 3 0 13 -9 23 -20z
m195 -43 c0 -2 -10 -12 -22 -23 l-23 -19 19 23 c18 21 26 27 26 19z m290 -11
c0 5 15 10 34 10 28 1 34 -2 33 -17 -1 -16 -4 -16 -17 -5 -18 16 -40 10 -61
-17 -16 -19 -16 -19 -15 11 1 23 4 28 14 20 6 -6 12 -7 12 -2z m-716 -32 c3
-8 2 -12 -4 -9 -6 3 -10 10 -10 16 0 14 7 11 14 -7z m753 -21 c-16 -16 -17
-16 -17 3 0 11 3 24 7 28 4 3 11 2 17 -4 7 -7 5 -16 -7 -27z m-2010 21 c-3 -3
-12 -4 -19 -1 -8 3 -5 6 6 6 11 1 17 -2 13 -5z m76 -1 c-7 -2 -19 -2 -25 0 -7
3 -2 5 12 5 14 0 19 -2 13 -5z m1501 -9 c3 -8 2 -12 -4 -9 -6 3 -10 10 -10 16
0 14 7 11 14 -7z m-264 -49 c19 -19 32 -35 29 -35 -3 0 -20 16 -39 35 -19 19
-32 35 -29 35 3 0 20 -16 39 -35z m580 -9 c0 -2 -8 -10 -17 -17 -16 -13 -17
-12 -4 4 13 16 21 21 21 13z m-2914 -775 c16 -57 18 -60 59 -72 24 -7 41 -17
38 -22 -3 -5 5 -6 18 -2 13 4 21 4 17 0 -12 -13 -59 -15 -51 -2 4 7 0 8 -11 4
-10 -4 -29 -10 -42 -13 -22 -6 -42 -36 -57 -84 -3 -9 -8 -1 -14 19 -8 30 -15
35 -73 54 l-65 20 61 20 62 20 17 59 c10 32 19 58 21 58 2 0 10 -27 20 -59z
m54 -121 c-8 -5 -19 -10 -25 -10 -5 0 -3 5 5 10 8 5 20 10 25 10 6 0 3 -5 -5
-10z m-63 -82 c-3 -8 -6 -5 -6 6 -1 11 2 17 5 13 3 -3 4 -12 1 -19z"/>
<path d="M2348 2979 c-2 -44 -1 -83 1 -85 9 -8 531 -4 554 5 39 15 57 40 57
79 0 80 -10 82 -334 82 l-274 0 -4 -81z"/>
<path d="M2357 2692 c-3 -4 -7 -45 -9 -92 l-3 -85 255 -3 c293 -3 333 0 366
33 46 46 21 127 -44 144 -42 12 -558 15 -565 3z"/>
<path d="M5542 3138 c-18 -18 -14 -38 7 -38 20 0 48 27 38 37 -4 3 -9 -2 -13
-11 -3 -9 -13 -16 -21 -16 -13 0 -13 3 -3 15 16 19 8 29 -8 13z"/>
<path d="M2677 1959 c7 -7 15 -10 18 -7 3 3 -2 9 -12 12 -14 6 -15 5 -6 -5z"/>
</g>
</svg>
